PathFileType	3	(X/Y/Z)	D:\VICON_DB\Goncalves\Pilot01\09-03-2026\bw_sq_140_01.trc
DataRate	CameraRate	NumFrames	NumMarkers	Units	OrigDataRate	OrigDataStartFrame	OrigNumFrames
200.0	200.0	8	34	mm	200.0	571	913	
Frame#	Time	LASI			RASI			LPSI			RPSI			LTHI			LTHAP			LTHAD			LKNE			LKNM			LTIB			LTIAP			LTIAD			LANK			LMED			LHEE			LTOE			LFMH			LSMH			LVMH			RTHI			RTHAP			RTHAD			RKNE			RKNM			RTIB			RTIAP			RTIAD			RANK			RMED			RHEE			RTOE			RFMH			RSMH			RVMH			
		X1	Y1	Z1	X2	Y2	Z2	X3	Y3	Z3	X4	Y4	Z4	X5	Y5	Z5	X6	Y6	Z6	X7	Y7	Z7	X8	Y8	Z8	X9	Y9	Z9	X10	Y10	Z10	X11	Y11	Z11	X12	Y12	Z12	X13	Y13	Z13	X14	Y14	Z14	X15	Y15	Z15	X16	Y16	Z16	X17	Y17	Z17	X18	Y18	Z18	X19	Y19	Z19	X20	Y20	Z20	X21	Y21	Z21	X22	Y22	Z22	X23	Y23	Z23	X24	Y24	Z24	X25	Y25	Z25	X26	Y26	Z26	X27	Y27	Z27	X28	Y28	Z28	X29	Y29	Z29	X30	Y30	Z30	X31	Y31	Z31	X32	Y32	Z32	X33	Y33	Z33	X34	Y34	Z34	
571	2.85	160.20018	816.3299	-1093.4622	149.58023	822.89667	-1354.0992				343.01773	886.23547	-1259.0183	166.58904	686.73914	-992.13013	197.6257	735.75378	-1018.2121	198.03127	630.18311	-941.79016	177.24974	475.45798	-892.5849				227.96352	286.82263	-849.65735	138.44528	350.28204	-873.59979	182.92967	254.38428	-843.44598	264.06577	75.918114	-840.70984				277.23782	62.680447	-907.28113	186.32921	72.399773	-818.18817	124.90765	44.857262	-814.91656				172.47456	24.605976	-749.02032	182.01703	630.21802	-1501.0876	162.61203	733.51746	-1423.7531	125.83431	665.34625	-1453.2839	170.07462	490.49112	-1536.0602				206.24744	301.44312	-1585.5934	132.34171	339.07037	-1561.9105	153.69702	258.80624	-1569.5885	263.73654	63.619545	-1574.2479				273.36966	60.196415	-1520.2236	179.76543	70.381844	-1610.3887	122.65242	51.079063	-1611.2532				168.6149	19.740309	-1667.9625
572	2.855	158.73318	818.84039	-1093.5746	148.05202	825.41974	-1354.2013				341.6427	888.34735	-1259.2106	165.44928	687.31	-992.91364	196.20482	736.92926	-1018.5953	197.26453	630.7467	-942.8819	177.80988	475.58316	-894.66058				228.60588	287.06519	-851.06531	139.33199	350.52936	-875.61523	183.44022	254.77632	-844.74316	264.12326	76.04084	-840.90918				277.25266	62.569946	-907.46161	186.2892	72.42627	-818.31287	124.88509	44.842983	-814.96368				172.45776	24.648251	-749.07782	181.29271	630.95557	-1500.3591	161.1225	734.6142	-1423.5828	124.89335	665.78455	-1452.6702	170.78432	490.81827	-1534.433				207.02414	301.76038	-1584.4203	133.35133	339.45071	-1560.3179	154.38414	259.20718	-1568.4841	263.81134	63.608482	-1574.2238				273.51743	60.13028	-1520.2468	179.78523	70.387199	-1610.359	122.64503	51.071087	-1611.2006				168.5773	19.760458	-1667.9556
573	2.86	157.25449	821.27271	-1093.6753	146.52676	827.85693	-1354.2931				340.26761	890.37335	-1259.3905	164.30815	687.8338	-993.70386	194.77814	738.04791	-1018.9723	196.49129	631.26831	-943.97394	178.36575	475.68832	-896.71735				229.24734	287.29477	-852.46942	140.21095	350.76358	-877.60681	183.95123	255.159	-846.02802	264.18436	76.16124	-841.11584				277.26294	62.460636	-907.64612	186.25078	72.454025	-818.43683	124.86414	44.829338	-815.00739				172.4427	24.690104	-749.13422	180.58284	631.64752	-1499.62	159.65932	735.66028	-1423.3932	123.97438	666.18146	-1452.0403	171.50212	491.12497	-1532.8109				207.79747	302.06912	-1583.2494	134.36006	339.82043	-1558.7246	155.06914	259.59897	-1567.3751	263.88586	63.597984	-1574.1903				273.66486	60.061909	-1520.262	179.80295	70.394203	-1610.3236	122.6363	51.062321	-1611.1445				168.53955	19.783726	-1667.9459
574	2.865	155.76395	823.62506	-1093.764	145.0052	830.20734	-1354.3757				338.89224	892.31329	-1259.556	163.16447	688.31091	-994.49811	193.34332	739.1098	-1019.3424	195.7114	631.74866	-945.06372	178.91742	475.77444	-898.7511				229.88765	287.51169	-853.8653	141.08228	350.9855	-879.5697	184.46266	255.53209	-847.297	264.24881	76.279297	-841.32782				277.26932	62.352604	-907.83313	186.214	72.482536	-818.55914	124.84487	44.816418	-815.047				172.42952	24.731041	-749.18903	179.8887	632.29425	-1498.8716	158.22293	736.65588	-1423.1853	123.07758	666.53741	-1451.3967	172.2281	491.41162	-1531.1971				208.5681	302.36935	-1582.0836	135.36792	340.1796	-1557.1356	155.75269	259.98145	-1566.2642	263.96036	63.587704	-1574.1475				273.81213	59.990452	-1520.2681	179.81915	70.402977	-1610.2831	122.62679	51.053089	-1611.0857				168.50233	19.809668	-1667.9346
575	2.87	154.26141	825.89569	-1093.8414	143.48801	832.46985	-1354.4502				337.51645	894.16718	-1259.7064	162.01727	688.74176	-995.29413	191.89812	740.11523	-1019.7056	194.9249	632.18835	-946.14795	179.46483	475.84222	-900.75726				230.52594	287.716	-855.24847	141.94595	351.19525	-881.49982	184.97412	255.89523	-848.54718	264.31644	76.394897	-841.54333				277.27258	62.245899	-908.02106	186.17906	72.511215	-818.67926	124.82719	44.804268	-815.08252				172.41823	24.770536	-749.24139	179.21149	632.89648	-1498.1157	156.81343	737.60138	-1422.9612	122.20293	666.85284	-1450.7421	172.96202	491.67905	-1529.5953				209.33696	302.66116	-1580.9253	136.37506	340.52823	-1555.5547	156.43544	260.35464	-1565.1548	264.03522	63.577309	-1574.0953				273.9592	59.915394	-1520.2653	179.83434	70.413597	-1610.2391	122.61705	51.043774	-1611.0253				168.4662	19.837637	-1667.9215
576	2.875	152.74663	828.08289	-1093.9075	141.9758	834.64325	-1354.5179				336.14032	895.93445	-1259.8394	160.86568	689.12634	-996.08911	190.4404	741.06433	-1020.0613	194.13196	632.58789	-947.22363	180.0078	475.89252	-902.73169				231.16087	287.90781	-856.61407	142.80199	351.39279	-883.39386	185.48462	256.24768	-849.77533	264.38708	76.50782	-841.75995				277.27365	62.140461	-908.20782	186.14621	72.539612	-818.79608	124.81087	44.79287	-815.11371				172.4088	24.808014	-749.29083	178.55219	633.45532	-1497.355	155.43044	738.49725	-1422.7223	121.3502	667.1283	-1450.0793	173.70354	491.92828	-1528.0094				210.10503	302.94458	-1579.7773	137.38155	340.86649	-1553.9865	157.1181	260.71857	-1564.0505	264.11075	63.566544	-1574.0347				274.10544	59.83662	-1520.2538	179.84901	70.426186	-1610.1927	122.60766	51.034718	-1610.9645				168.43176	19.866779	-1667.9078
577	2.88	151.2193	830.18506	-1093.9625	140.46919	836.72662	-1354.5798				334.76428	897.61438	-1259.9536	159.70915	689.46509	-996.88013	188.96832	741.95746	-1020.4086	193.33298	632.94794	-948.28766	180.54613	475.92581	-904.67084				231.79076	288.08716	-857.95758	143.64992	351.57797	-885.24908	185.9929	256.58859	-850.97882	264.46054	76.617828	-841.97571				277.27353	62.036221	-908.39136	186.11586	72.567268	-818.90869	124.79539	44.782215	-815.14099				172.40118	24.842855	-749.33643	177.91177	633.97223	-1496.5912	154.07323	739.34369	-1422.4702	120.519	667.36487	-1449.4109	174.45212	492.16037	-1526.4427				210.87325	303.21967	-1578.6422	138.38742	341.19461	-1552.4357	157.80124	261.07333	-1562.9558	264.18723	63.55521	-1573.9667				274.25034	59.754242	-1520.2346	179.86365	70.440811	-1610.1461	122.59918	51.026188	-1610.9048				168.39964	19.896057	-1667.8939
578	2.885	149.67903	832.20087	-1094.0066	138.96861	838.71906	-1354.6371				333.38867	899.20605	-1260.048	158.54732	689.75867	-997.66412	187.48044	742.79553	-1020.7468	192.52856	633.26874	-949.33679	181.07968	475.94266	-906.57117				232.41368	288.25388	-859.27472	144.48898	351.75043	-887.06293	186.49745	256.9169	-852.15533	264.53683	76.724678	-842.18842				277.27322	61.933117	-908.5697	186.08836	72.593735	-819.01569	124.7802	44.772308	-815.16437				172.39526	24.874409	-749.3775	177.29131	634.44806	-1495.8267	152.74077	740.14136	-1422.2067	119.70868	667.56354	-1448.7401	175.20732	492.37613	-1524.8983				211.64252	303.48642	-1577.5222	139.39276	341.51288	-1550.9064	158.48549	261.41904	-1561.8743	264.26489	63.543133	-1573.892				274.39331	59.668438	-1520.2086	179.87892	70.457314	-1610.1008	122.59224	51.018333	-1610.8477				168.37048	19.924351	-1667.8806
